<mxfile host="65bd71144e">
    <diagram id="bEXo7X7zX1GwQ3plyoLS" name="Page-1">
        <mxGraphModel dx="955" dy="500" grid="1" gridSize="10" guides="1" tooltips="1" connect="1" arrows="1" fold="1" page="1" pageScale="1" pageWidth="1169" pageHeight="827" math="0" shadow="0">
            <root>
                <mxCell id="0"/>
                <mxCell id="1" parent="0"/>
                <mxCell id="28" style="edgeStyle=none;html=1;entryX=0.5;entryY=0;entryDx=0;entryDy=0;" edge="1" parent="1" target="2">
                    <mxGeometry relative="1" as="geometry">
                        <mxPoint x="440" y="40" as="targetPoint"/>
                        <mxPoint x="440" y="50" as="sourcePoint"/>
                    </mxGeometry>
                </mxCell>
                <mxCell id="29" value="События об обновлении" style="edgeLabel;html=1;align=center;verticalAlign=middle;resizable=0;points=[];" vertex="1" connectable="0" parent="28">
                    <mxGeometry x="0.0139" y="-1" relative="1" as="geometry">
                        <mxPoint x="71" as="offset"/>
                    </mxGeometry>
                </mxCell>
                <mxCell id="2" value="Использовать Fiber-алгоритм" style="whiteSpace=wrap;html=1;" vertex="1" parent="1">
                    <mxGeometry x="310" y="170" width="260" height="100" as="geometry"/>
                </mxCell>
                <mxCell id="4" style="edgeStyle=none;html=1;entryX=-0.004;entryY=0.098;entryDx=0;entryDy=0;entryPerimeter=0;" edge="1" parent="1" target="2">
                    <mxGeometry relative="1" as="geometry">
                        <mxPoint x="160" y="180" as="sourcePoint"/>
                    </mxGeometry>
                </mxCell>
                <mxCell id="7" style="edgeStyle=none;html=1;entryX=-0.004;entryY=0.868;entryDx=0;entryDy=0;entryPerimeter=0;" edge="1" parent="1" target="2">
                    <mxGeometry relative="1" as="geometry">
                        <mxPoint x="160" y="257" as="sourcePoint"/>
                    </mxGeometry>
                </mxCell>
                <mxCell id="6" value="current дерево" style="text;html=1;resizable=0;autosize=1;align=center;verticalAlign=middle;points=[];fillColor=none;strokeColor=none;rounded=0;" vertex="1" parent="1">
                    <mxGeometry x="180" y="163" width="100" height="20" as="geometry"/>
                </mxCell>
                <mxCell id="8" value="workInProgress дерево" style="text;html=1;resizable=0;autosize=1;align=center;verticalAlign=middle;points=[];fillColor=none;strokeColor=none;rounded=0;" vertex="1" parent="1">
                    <mxGeometry x="160" y="240" width="140" height="20" as="geometry"/>
                </mxCell>
                <mxCell id="14" style="edgeStyle=none;html=1;" edge="1" parent="1">
                    <mxGeometry relative="1" as="geometry">
                        <mxPoint x="370" y="380" as="sourcePoint"/>
                        <mxPoint x="370" y="270" as="targetPoint"/>
                    </mxGeometry>
                </mxCell>
                <mxCell id="15" value="requestIdleCallback" style="edgeLabel;html=1;align=center;verticalAlign=middle;resizable=0;points=[];" vertex="1" connectable="0" parent="14">
                    <mxGeometry x="-0.0515" y="-3" relative="1" as="geometry">
                        <mxPoint x="47" y="2" as="offset"/>
                    </mxGeometry>
                </mxCell>
                <mxCell id="16" style="edgeStyle=none;html=1;" edge="1" parent="1">
                    <mxGeometry relative="1" as="geometry">
                        <mxPoint x="510" y="380" as="sourcePoint"/>
                        <mxPoint x="510" y="270" as="targetPoint"/>
                    </mxGeometry>
                </mxCell>
                <mxCell id="17" value="DOM API" style="edgeLabel;html=1;align=center;verticalAlign=middle;resizable=0;points=[];" vertex="1" connectable="0" parent="16">
                    <mxGeometry x="-0.0515" y="-3" relative="1" as="geometry">
                        <mxPoint x="27" y="2" as="offset"/>
                    </mxGeometry>
                </mxCell>
                <mxCell id="19" style="edgeStyle=none;html=1;entryX=0;entryY=0.5;entryDx=0;entryDy=0;" edge="1" parent="1" target="2">
                    <mxGeometry relative="1" as="geometry">
                        <mxPoint x="160" y="220" as="sourcePoint"/>
                        <mxPoint x="318.96000000000004" y="189.79999999999995" as="targetPoint"/>
                    </mxGeometry>
                </mxCell>
                <mxCell id="20" value="Текущее DOM-дерево" style="text;html=1;resizable=0;autosize=1;align=center;verticalAlign=middle;points=[];fillColor=none;strokeColor=none;rounded=0;" vertex="1" parent="1">
                    <mxGeometry x="160" y="203" width="140" height="20" as="geometry"/>
                </mxCell>
                <mxCell id="21" style="edgeStyle=none;html=1;" edge="1" parent="1">
                    <mxGeometry relative="1" as="geometry">
                        <mxPoint x="570" y="182.2" as="sourcePoint"/>
                        <mxPoint x="740" y="182" as="targetPoint"/>
                    </mxGeometry>
                </mxCell>
                <mxCell id="22" style="edgeStyle=none;html=1;" edge="1" parent="1">
                    <mxGeometry relative="1" as="geometry">
                        <mxPoint x="570" y="219.5" as="sourcePoint"/>
                        <mxPoint x="740" y="220" as="targetPoint"/>
                    </mxGeometry>
                </mxCell>
                <mxCell id="23" style="edgeStyle=none;html=1;entryX=0;entryY=0.5;entryDx=0;entryDy=0;" edge="1" parent="1">
                    <mxGeometry relative="1" as="geometry">
                        <mxPoint x="570" y="260" as="sourcePoint"/>
                        <mxPoint x="740" y="260" as="targetPoint"/>
                    </mxGeometry>
                </mxCell>
                <mxCell id="24" value="workInProgress дерево" style="text;html=1;resizable=0;autosize=1;align=center;verticalAlign=middle;points=[];fillColor=none;strokeColor=none;rounded=0;" vertex="1" parent="1">
                    <mxGeometry x="580" y="243" width="140" height="20" as="geometry"/>
                </mxCell>
                <mxCell id="25" value="Актуальное DOM-дерево" style="text;html=1;resizable=0;autosize=1;align=center;verticalAlign=middle;points=[];fillColor=none;strokeColor=none;rounded=0;" vertex="1" parent="1">
                    <mxGeometry x="570" y="203" width="160" height="20" as="geometry"/>
                </mxCell>
                <mxCell id="26" value="current дерево" style="text;html=1;resizable=0;autosize=1;align=center;verticalAlign=middle;points=[];fillColor=none;strokeColor=none;rounded=0;" vertex="1" parent="1">
                    <mxGeometry x="595" y="164" width="100" height="20" as="geometry"/>
                </mxCell>
                <mxCell id="44" style="edgeStyle=none;html=1;exitX=1;exitY=0.5;exitDx=0;exitDy=0;entryX=0;entryY=0.25;entryDx=0;entryDy=0;" edge="1" parent="1" source="30" target="41">
                    <mxGeometry relative="1" as="geometry">
                        <mxPoint x="740" y="584" as="targetPoint"/>
                        <Array as="points">
                            <mxPoint x="580" y="584"/>
                            <mxPoint x="580" y="705"/>
                        </Array>
                    </mxGeometry>
                </mxCell>
                <mxCell id="30" value="Отрендерить изменения в память" style="whiteSpace=wrap;html=1;" vertex="1" parent="1">
                    <mxGeometry x="250" y="534" width="260" height="100" as="geometry"/>
                </mxCell>
                <mxCell id="32" style="edgeStyle=none;html=1;" edge="1" parent="1">
                    <mxGeometry relative="1" as="geometry">
                        <mxPoint x="21.039999999999992" y="552.1100000000001" as="sourcePoint"/>
                        <mxPoint x="250" y="552.11" as="targetPoint"/>
                    </mxGeometry>
                </mxCell>
                <mxCell id="33" value="current дерево" style="text;html=1;resizable=0;autosize=1;align=center;verticalAlign=middle;points=[];fillColor=none;strokeColor=none;rounded=0;" vertex="1" parent="1">
                    <mxGeometry x="130" y="534" width="100" height="20" as="geometry"/>
                </mxCell>
                <mxCell id="35" style="edgeStyle=none;html=1;entryX=-0.003;entryY=0.683;entryDx=0;entryDy=0;entryPerimeter=0;" edge="1" parent="1" target="30">
                    <mxGeometry relative="1" as="geometry">
                        <mxPoint x="21.039999999999992" y="602.11" as="sourcePoint"/>
                        <mxPoint x="169.9999999999998" y="601.9100000000001" as="targetPoint"/>
                    </mxGeometry>
                </mxCell>
                <mxCell id="36" value="workInProgress дерево" style="text;html=1;resizable=0;autosize=1;align=center;verticalAlign=middle;points=[];fillColor=none;strokeColor=none;rounded=0;" vertex="1" parent="1">
                    <mxGeometry x="100" y="584" width="140" height="20" as="geometry"/>
                </mxCell>
                <mxCell id="37" style="edgeStyle=none;html=1;" edge="1" parent="1">
                    <mxGeometry relative="1" as="geometry">
                        <mxPoint x="320" y="930" as="sourcePoint"/>
                        <mxPoint x="320" y="634.0000000000001" as="targetPoint"/>
                    </mxGeometry>
                </mxCell>
                <mxCell id="38" value="requestIdleCallback" style="edgeLabel;html=1;align=center;verticalAlign=middle;resizable=0;points=[];" vertex="1" connectable="0" parent="37">
                    <mxGeometry x="-0.0515" y="-3" relative="1" as="geometry">
                        <mxPoint x="47" y="90" as="offset"/>
                    </mxGeometry>
                </mxCell>
                <mxCell id="39" style="edgeStyle=none;html=1;" edge="1" parent="1">
                    <mxGeometry relative="1" as="geometry">
                        <mxPoint x="430" y="930" as="sourcePoint"/>
                        <mxPoint x="430" y="634.0000000000001" as="targetPoint"/>
                    </mxGeometry>
                </mxCell>
                <mxCell id="40" value="DOM API" style="edgeLabel;html=1;align=center;verticalAlign=middle;resizable=0;points=[];" vertex="1" connectable="0" parent="39">
                    <mxGeometry x="-0.0515" y="-3" relative="1" as="geometry">
                        <mxPoint x="27" y="90" as="offset"/>
                    </mxGeometry>
                </mxCell>
                <mxCell id="49" style="edgeStyle=none;html=1;entryX=0;entryY=0.5;entryDx=0;entryDy=0;" edge="1" parent="1" target="41">
                    <mxGeometry relative="1" as="geometry">
                        <mxPoint x="180" y="720" as="targetPoint"/>
                        <mxPoint x="30" y="730" as="sourcePoint"/>
                    </mxGeometry>
                </mxCell>
                <mxCell id="41" value="Закрепить изменения на экране" style="whiteSpace=wrap;html=1;" vertex="1" parent="1">
                    <mxGeometry x="650" y="680" width="260" height="100" as="geometry"/>
                </mxCell>
                <mxCell id="42" style="edgeStyle=none;html=1;entryX=0.5;entryY=0;entryDx=0;entryDy=0;" edge="1" parent="1">
                    <mxGeometry relative="1" as="geometry">
                        <mxPoint x="379.44" y="534.0000000000001" as="targetPoint"/>
                        <mxPoint x="379.44" y="414" as="sourcePoint"/>
                    </mxGeometry>
                </mxCell>
                <mxCell id="43" value="События об обновлении" style="edgeLabel;html=1;align=center;verticalAlign=middle;resizable=0;points=[];" vertex="1" connectable="0" parent="42">
                    <mxGeometry x="0.0139" y="-1" relative="1" as="geometry">
                        <mxPoint x="72" y="9" as="offset"/>
                    </mxGeometry>
                </mxCell>
                <mxCell id="45" value="Актуальное workInProgress дерево" style="text;html=1;resizable=0;autosize=1;align=center;verticalAlign=middle;points=[];fillColor=none;strokeColor=none;rounded=0;" vertex="1" parent="1">
                    <mxGeometry x="585" y="604" width="210" height="20" as="geometry"/>
                </mxCell>
                <mxCell id="46" style="edgeStyle=none;html=1;entryX=0;entryY=0.75;entryDx=0;entryDy=0;" edge="1" parent="1" target="41">
                    <mxGeometry relative="1" as="geometry">
                        <mxPoint x="22" y="552.11" as="sourcePoint"/>
                        <mxPoint x="90" y="685.11" as="targetPoint"/>
                        <Array as="points">
                            <mxPoint x="90" y="552.11"/>
                            <mxPoint x="90" y="755"/>
                        </Array>
                    </mxGeometry>
                </mxCell>
                <mxCell id="47" style="edgeStyle=none;html=1;entryX=0.5;entryY=1;entryDx=0;entryDy=0;" edge="1" parent="1" target="41">
                    <mxGeometry relative="1" as="geometry">
                        <mxPoint x="430" y="932.2222493489584" as="sourcePoint"/>
                        <mxPoint x="440" y="644" as="targetPoint"/>
                        <Array as="points">
                            <mxPoint x="430" y="830"/>
                            <mxPoint x="780" y="830"/>
                        </Array>
                    </mxGeometry>
                </mxCell>
                <mxCell id="50" value="DOM-дерево" style="text;html=1;resizable=0;autosize=1;align=center;verticalAlign=middle;points=[];fillColor=none;strokeColor=none;rounded=0;" vertex="1" parent="1">
                    <mxGeometry x="135" y="710" width="90" height="20" as="geometry"/>
                </mxCell>
                <mxCell id="51" style="edgeStyle=none;html=1;" edge="1" parent="1">
                    <mxGeometry relative="1" as="geometry">
                        <mxPoint x="910" y="693.2" as="sourcePoint"/>
                        <mxPoint x="1080" y="693" as="targetPoint"/>
                    </mxGeometry>
                </mxCell>
                <mxCell id="52" style="edgeStyle=none;html=1;" edge="1" parent="1">
                    <mxGeometry relative="1" as="geometry">
                        <mxPoint x="910" y="730.5" as="sourcePoint"/>
                        <mxPoint x="1080" y="731" as="targetPoint"/>
                    </mxGeometry>
                </mxCell>
                <mxCell id="53" style="edgeStyle=none;html=1;entryX=0;entryY=0.5;entryDx=0;entryDy=0;" edge="1" parent="1">
                    <mxGeometry relative="1" as="geometry">
                        <mxPoint x="910" y="771" as="sourcePoint"/>
                        <mxPoint x="1080" y="771" as="targetPoint"/>
                    </mxGeometry>
                </mxCell>
                <mxCell id="54" value="workInProgress дерево" style="text;html=1;resizable=0;autosize=1;align=center;verticalAlign=middle;points=[];fillColor=none;strokeColor=none;rounded=0;" vertex="1" parent="1">
                    <mxGeometry x="920" y="754" width="140" height="20" as="geometry"/>
                </mxCell>
                <mxCell id="55" value="Актуальное DOM-дерево" style="text;html=1;resizable=0;autosize=1;align=center;verticalAlign=middle;points=[];fillColor=none;strokeColor=none;rounded=0;" vertex="1" parent="1">
                    <mxGeometry x="910" y="714" width="160" height="20" as="geometry"/>
                </mxCell>
                <mxCell id="56" value="current дерево" style="text;html=1;resizable=0;autosize=1;align=center;verticalAlign=middle;points=[];fillColor=none;strokeColor=none;rounded=0;" vertex="1" parent="1">
                    <mxGeometry x="935" y="675" width="100" height="20" as="geometry"/>
                </mxCell>
            </root>
        </mxGraphModel>
    </diagram>
</mxfile>